<?xml version="1.0" encoding="utf-8"?>
<!-- Generator: Adobe Illustrator 27.3.1, SVG Export Plug-In . SVG Version: 6.00 Build 0)  -->
<svg version="1.1" class="logo" xmlns="http://www.w3.org/2000/svg" xmlns:xlink="http://www.w3.org/1999/xlink" x="0px" y="0px" viewBox="0 0 140 140" style="enable-background:new 0 0 140 140;" xml:space="preserve">
  <defs>
    <linearGradient id="logo-gradient" x1="50%" y1="0%" x2="50%" y2="100%">
      <!--Use two colors and alternate them as shown below-->
      <stop offset="0%" stop-color="#152D97">
        <animate attributeName="stop-color" values="#152D97; dodgerblue; #152D97" dur="4s" repeatCount="indefinite"></animate>
      </stop>
      <stop offset="100%" stop-color="dodgerblue">
        <animate attributeName="stop-color" values="dodgerblue; #152D97; dodgerblue" dur="4s" repeatCount="indefinite"></animate>
      </stop>
      
    </linearGradient>
  </defs>
  <g fill="url('#logo-gradient')">
    <path class="st0" d="M40.4,57.8l0.1-14.5c0-2.7,2.2-4.8,4.9-4.8h24.4c2.7,0,4.9-2.2,4.9-4.9v-9.7c0-2.7-2.2-4.9-4.9-4.9H25.9
		c-2.7,0-4.9,2.2-4.9,4.9v0v92.3c0,2.7,2.2,4.9,4.9,4.9h43.8c2.7,0,4.9-2.2,4.9-4.9v-9.6c0-2.7-2.2-4.9-4.9-4.9H45.4
		c-2.7,0-4.9-2.2-4.9-4.9V82.2c0-2.7,2.2-4.9,4.9-4.9h4.8c2.7,0,4.9-2.2,4.9-4.9l0-4.9c0-2.7-2.2-4.8-4.9-4.8h-4.9
		C42.6,62.7,40.4,60.5,40.4,57.8z" />
    <path class="st0" d="M104.3,19h9.7c2.7,0,4.9,2.2,4.9,4.9v92.3c0,2.7-2.2,4.9-4.9,4.9h-9.7c-2.7,0-4.9-2.2-4.9-4.9V82.1
		c0-2.7-2.2-4.9-4.9-4.9h-9.7c-2.7,0-4.9-2.2-4.9-4.9v-4.9c0-2.7,2.2-4.9,4.9-4.9h9.7c2.7,0,4.9-2.2,4.9-4.9V23.8
		C99.5,21.1,101.6,19,104.3,19z" />
  </g>
</svg>